<svg
  xmlns="http://www.w3.org/2000/svg"
  viewBox="0 0 600 600"
  fill="currentcolor"
  stroke="none"
  preserveAspectRatio="xMidYMid meet"
>
  <g transform="translate(-25,800) scale(0.13,-0.13)"
  >
    <!-- твои path-данные сюда -->
    <path d="M1249 4791 c-149 -48 -282 -214 -344 -427 -78 -270 -41 -703 92
    -1076 79 -222 237 -499 385 -675 110 -132 120 -111 43 85 -111 287 -183 534
    -232 807 -33 186 -44 589 -19 698 37 160 112 237 229 237 68 0 133 -24 338
    -125 195 -96 289 -129 311 -107 9 9 3 22 -28 55 -23 23 -110 118 -194 211
    -247 271 -314 318 -465 323 -49 1 -102 -1 -116 -6z"/>
    <path d="M2463 4706 c-138 -44 -241 -181 -300 -401 -25 -94 -27 -113 -27 -330
    0 -172 4 -259 17 -345 56 -364 174 -685 347 -950 114 -173 240 -316 240 -272
    0 5 -24 85 -54 178 -168 520 -229 839 -230 1189 -1 179 1 208 22 278 55 193
    143 279 283 281 81 0 156 -34 264 -118 175 -138 269 -178 436 -184 188 -7 286
    33 477 192 62 52 132 102 157 112 64 24 135 15 183 -23 148 -119 192 -573 111
    -1138 -35 -248 -87 -443 -182 -687 -16 -40 -23 -70 -17 -73 17 -10 116 92 178
    184 149 217 246 481 308 837 21 121 27 193 31 384 9 404 -39 623 -167 763 -69
    75 -124 101 -220 101 -135 0 -231 -45 -459 -217 -80 -60 -175 -124 -211 -141
    -61 -29 -72 -31 -180 -31 -110 0 -118 1 -180 32 -42 21 -104 69 -175 134 -60
    56 -129 114 -153 131 -150 104 -370 154 -499 114z"/>

  </g>
</svg>
